<svg width="393" height="166" viewBox="0 0 393 166" fill="none" xmlns="http://www.w3.org/2000/svg">
<path d="M310.316 7.14562L282.686 0.42033L255.055 7.14562L227.425 0.42033L199.794 7.14562L172.164 0.42033L144.533 7.14562L116.902 0.42033L89.2719 7.14562L61.6414 0.42033L34.0108 7.14562L6.38022 0.42033L-21.2503 7.14562L-49 0.367789L-48.6427 0.0525415L-21.2503 6.72529L6.38022 0L34.0108 6.72529L61.6414 0L89.2719 6.72529L116.902 0L144.533 6.72529L172.164 0L199.794 6.72529L227.425 0L255.055 6.72529L282.686 0L310.316 6.72529L337.828 0L365.458 6.72529L392.97 0.0525415L393.327 0.367789L365.458 7.14562L337.828 0.42033L310.316 7.14562Z" fill="#4EBE9D" fill-opacity="0.3"/>
<path d="M310.316 13.7657L282.686 7.04045L255.055 13.7657L227.425 7.04045L199.794 13.7657L172.164 7.04045L144.533 13.7657L116.902 7.04045L89.2719 13.7657L61.6414 7.04045L34.0108 13.7657L6.38022 7.04045L-21.2503 13.7657L-49 6.98791L-48.6427 6.67266L-21.2503 13.3454L6.38022 6.62012L34.0108 13.3454L61.6414 6.62012L89.2719 13.3454L116.902 6.62012L144.533 13.3454L172.164 6.62012L199.794 13.3454L227.425 6.62012L255.055 13.3454L282.686 6.62012L310.316 13.3454L337.828 6.62012L365.458 13.3454L392.97 6.67266L393.327 6.98791L365.458 13.7657L337.828 7.04045L310.316 13.7657Z" fill="#4EBE9D" fill-opacity="0.3"/>
<path d="M199.794 20.3333L172.164 13.608L144.533 20.3333L116.902 13.608L89.2719 20.3333L61.6414 13.608L34.0108 20.3333L6.38022 13.608L-21.2503 20.3333L-49 13.608L-48.6427 13.2928L-21.2503 19.9655L6.38022 13.2402L34.0108 19.9655L61.6414 13.2402L89.2719 19.9655L116.902 13.2402L144.533 19.9655L172.164 13.2402L199.794 19.9655L227.425 13.2402L255.055 19.9655L282.686 13.2402L310.316 19.9655L337.828 13.2402L365.458 19.9655L392.97 13.2928L393.327 13.608L365.458 20.3333L337.828 13.608L310.316 20.3333L282.686 13.608L255.055 20.3333L227.425 13.608L199.794 20.3333Z" fill="#4EBE9D" fill-opacity="0.3"/>
<path d="M310.316 26.9539L282.686 20.2286L255.055 26.9539L227.425 20.2286L199.794 26.9539L172.164 20.2286L144.533 26.9539L116.902 20.2286L89.2719 26.9539L61.6414 20.2286L34.0108 26.9539L6.38022 20.2286L-21.2503 26.9539L-49 20.1761L-48.6427 19.9134L-21.2503 26.5336L6.38022 19.8608L34.0108 26.5336L61.6414 19.8608L89.2719 26.5336L116.902 19.8608L144.533 26.5336L172.164 19.8608L199.794 26.5336L227.425 19.8608L255.055 26.5336L282.686 19.8608L310.316 26.5336L337.828 19.8608L365.458 26.5336L392.97 19.9134L393.327 20.1761L365.458 26.9539L337.828 20.2286L310.316 26.9539Z" fill="#4EBE9D" fill-opacity="0.3"/>
<path d="M199.794 33.5738L172.164 26.8486L144.533 33.5738L116.902 26.8486L89.2719 33.5738L61.6414 26.8486L34.0108 33.5738L6.38022 26.8486L-21.2503 33.5738L-49 26.796L-48.6427 26.4808L-21.2503 33.1535L6.38022 26.4282L34.0108 33.1535L61.6414 26.4282L89.2719 33.1535L116.902 26.4282L144.533 33.1535L172.164 26.4282L199.794 33.1535L227.425 26.4282L255.055 33.1535L282.686 26.4282L310.316 33.1535L337.828 26.4282L365.458 33.1535L392.97 26.4808L393.327 26.796L365.458 33.5738L337.828 26.8486L310.316 33.5738L282.686 26.8486L255.055 33.5738L227.425 26.8486L199.794 33.5738Z" fill="#4EBE9D" fill-opacity="0.3"/>
<path d="M310.316 40.194L282.686 33.4687L255.055 40.194L227.425 33.4687L199.794 40.194L172.164 33.4687L144.533 40.194L116.902 33.4687L89.2719 40.194L61.6414 33.4687L34.0108 40.194L6.38022 33.4687L-21.2503 40.194L-49 33.4161L-48.6427 33.1009L-21.2503 39.7736L6.38022 33.0483L34.0108 39.7736L61.6414 33.0483L89.2719 39.7736L116.902 33.0483L144.533 39.7736L172.164 33.0483L199.794 39.7736L227.425 33.0483L255.055 39.7736L282.686 33.0483L310.316 39.7736L337.828 33.0483L365.458 39.7736L392.97 33.1009L393.327 33.4161L365.458 40.194L337.828 33.4687L310.316 40.194Z" fill="#4EBE9D" fill-opacity="0.3"/>
<path d="M199.794 46.7615L172.164 40.0362L144.533 46.7615L116.902 40.0362L89.2719 46.7615L61.6414 40.0362L34.0108 46.7615L6.38022 40.0362L-21.2503 46.7615L-49 40.0362L-48.6427 39.721L-21.2503 46.3937L6.38022 39.6685L34.0108 46.3937L61.6414 39.6685L89.2719 46.3937L116.902 39.6685L144.533 46.3937L172.164 39.6685L199.794 46.3937L227.425 39.6685L255.055 46.3937L282.686 39.6685L310.316 46.3937L337.828 39.6685L365.458 46.3937L392.97 39.721L393.327 40.0362L365.458 46.7615L337.828 40.0362L310.316 46.7615L282.686 40.0362L255.055 46.7615L227.425 40.0362L199.794 46.7615Z" fill="#4EBE9D" fill-opacity="0.3"/>
<path d="M310.316 53.3816L282.686 46.6564L255.055 53.3816L227.425 46.6564L199.794 53.3816L172.164 46.6564L144.533 53.3816L116.902 46.6564L89.2719 53.3816L61.6414 46.6564L34.0108 53.3816L6.38022 46.6564L-21.2503 53.3816L-49 46.6038L-48.6427 46.2886L-21.2503 52.9613L6.38022 46.2886L34.0108 52.9613L61.6414 46.2886L89.2719 52.9613L116.902 46.2886L144.533 52.9613L172.164 46.2886L199.794 52.9613L227.425 46.2886L255.055 52.9613L282.686 46.2886L310.316 52.9613L337.828 46.2886L365.458 52.9613L392.97 46.2886L393.327 46.6038L365.458 53.3816L337.828 46.6564L310.316 53.3816Z" fill="#4EBE9D" fill-opacity="0.3"/>
<path d="M310.316 60.0021L282.686 53.2768L255.055 60.0021L227.425 53.2768L199.794 60.0021L172.164 53.2768L144.533 60.0021L116.902 53.2768L89.2719 60.0021L61.6414 53.2768L34.0108 60.0021L6.38022 53.2768L-21.2503 60.0021L-49 53.2242L-48.6427 52.909L-21.2503 59.5817L6.38022 52.8564L34.0108 59.5817L61.6414 52.8564L89.2719 59.5817L116.902 52.8564L144.533 59.5817L172.164 52.8564L199.794 59.5817L227.425 52.8564L255.055 59.5817L282.686 52.8564L310.316 59.5817L337.828 52.8564L365.458 59.5817L392.97 52.909L393.327 53.2242L365.458 60.0021L337.828 53.2768L310.316 60.0021Z" fill="#4EBE9D" fill-opacity="0.3"/>
<path d="M199.794 66.5696L172.164 59.8969L144.533 66.5696L116.902 59.8969L89.2719 66.5696L61.6414 59.8969L34.0108 66.5696L6.38022 59.8969L-21.2503 66.5696L-49 59.8444L-48.6427 59.5291L-21.2503 66.2019L6.38022 59.4766L34.0108 66.2019L61.6414 59.4766L89.2719 66.2019L116.902 59.4766L144.533 66.2019L172.164 59.4766L199.794 66.2019L227.425 59.4766L255.055 66.2019L282.686 59.4766L310.316 66.2019L337.828 59.4766L365.458 66.2019L392.97 59.5291L393.327 59.8444L365.458 66.5696L337.828 59.8969L310.316 66.5696L282.686 59.8969L255.055 66.5696L227.425 59.8969L199.794 66.5696Z" fill="#4EBE9D" fill-opacity="0.3"/>
<path d="M310.316 73.1902L282.686 66.465L255.055 73.1902L227.425 66.465L199.794 73.1902L172.164 66.465L144.533 73.1902L116.902 66.465L89.2719 73.1902L61.6414 66.465L34.0108 73.1902L6.38022 66.465L-21.2503 73.1902L-49 66.465L-48.6427 66.1497L-21.2503 72.8225L6.38022 66.0972L34.0108 72.8225L61.6414 66.0972L89.2719 72.8225L116.902 66.0972L144.533 72.8225L172.164 66.0972L199.794 72.8225L227.425 66.0972L255.055 72.8225L282.686 66.0972L310.316 72.8225L337.828 66.0972L365.458 72.8225L392.97 66.1497L393.327 66.465L365.458 73.1902L337.828 66.465L310.316 73.1902Z" fill="#4EBE9D" fill-opacity="0.3"/>
<path d="M199.794 79.8099L172.164 73.0846L144.533 79.8099L116.902 73.0846L89.2719 79.8099L61.6414 73.0846L34.0108 79.8099L6.38022 73.0846L-21.2503 79.8099L-49 73.032L-48.6427 72.7168L-21.2503 79.3895L6.38022 72.7168L34.0108 79.3895L61.6414 72.7168L89.2719 79.3895L116.902 72.7168L144.533 79.3895L172.164 72.7168L199.794 79.3895L227.425 72.7168L255.055 79.3895L282.686 72.7168L310.316 79.3895L337.828 72.7168L365.458 79.3895L392.97 72.7168L393.327 73.032L365.458 79.8099L337.828 73.0846L310.316 79.8099L282.686 73.0846L255.055 79.8099L227.425 73.0846L199.794 79.8099Z" fill="#4EBE9D" fill-opacity="0.3"/>
<path d="M310.316 86.4303L282.686 79.705L255.055 86.4303L227.425 79.705L199.794 86.4303L172.164 79.705L144.533 86.4303L116.902 79.705L89.2719 86.4303L61.6414 79.705L34.0108 86.4303L6.38022 79.705L-21.2503 86.4303L-49 79.6525L-48.6427 79.3372L-21.2503 86.01L6.38022 79.2847L34.0108 86.01L61.6414 79.2847L89.2719 86.01L116.902 79.2847L144.533 86.01L172.164 79.2847L199.794 86.01L227.425 79.2847L255.055 86.01L282.686 79.2847L310.316 86.01L337.828 79.2847L365.458 86.01L392.97 79.3372L393.327 79.6525L365.458 86.4303L337.828 79.705L310.316 86.4303Z" fill="#4EBE9D" fill-opacity="0.3"/>
<path d="M199.794 92.9979L172.164 86.3251L144.533 92.9979L116.902 86.3251L89.2719 92.9979L61.6414 86.3251L34.0108 92.9979L6.38022 86.3251L-21.2503 92.9979L-49 86.2726L-48.6427 85.9573L-21.2503 92.6301L6.38022 85.9048L34.0108 92.6301L61.6414 85.9048L89.2719 92.6301L116.902 85.9048L144.533 92.6301L172.164 85.9048L199.794 92.6301L227.425 85.9048L255.055 92.6301L282.686 85.9048L310.316 92.6301L337.828 85.9048L365.458 92.6301L392.97 85.9573L393.327 86.2726L365.458 92.9979L337.828 86.3251L310.316 92.9979L282.686 86.3251L255.055 92.9979L227.425 86.3251L199.794 92.9979Z" fill="#4EBE9D" fill-opacity="0.3"/>
<path d="M310.316 99.6185L282.686 92.8932L255.055 99.6185L227.425 92.8932L199.794 99.6185L172.164 92.8932L144.533 99.6185L116.902 92.8932L89.2719 99.6185L61.6414 92.8932L34.0108 99.6185L6.38022 92.8932L-21.2503 99.6185L-49 92.8406L-48.6427 92.5779L-21.2503 99.2507L6.38022 92.5254L34.0108 99.2507L61.6414 92.5254L89.2719 99.2507L116.902 92.5254L144.533 99.2507L172.164 92.5254L199.794 99.2507L227.425 92.5254L255.055 99.2507L282.686 92.5254L310.316 99.2507L337.828 92.5254L365.458 99.2507L392.97 92.5779L393.327 92.8406L365.458 99.6185L337.828 92.8932L310.316 99.6185Z" fill="#4EBE9D" fill-opacity="0.3"/>
<path d="M310.316 106.238L282.686 99.5128L255.055 106.238L227.425 99.5128L199.794 106.238L172.164 99.5128L144.533 106.238L116.902 99.5128L89.2719 106.238L61.6414 99.5128L34.0108 106.238L6.38022 99.5128L-21.2503 106.238L-49 99.4603L-48.6427 99.145L-21.2503 105.818L6.38022 99.145L34.0108 105.818L61.6414 99.145L89.2719 105.818L116.902 99.145L144.533 105.818L172.164 99.145L199.794 105.818L227.425 99.145L255.055 105.818L282.686 99.145L310.316 105.818L337.828 99.145L365.458 105.818L392.97 99.145L393.327 99.4603L365.458 106.238L337.828 99.5128L310.316 106.238Z" fill="#4EBE9D" fill-opacity="0.3"/>
<path d="M199.794 112.859L172.164 106.133L144.533 112.859L116.902 106.133L89.2719 112.859L61.6414 106.133L34.0108 112.859L6.38022 106.133L-21.2503 112.859L-49 106.081L-48.6427 105.765L-21.2503 112.438L6.38022 105.713L34.0108 112.438L61.6414 105.713L89.2719 112.438L116.902 105.713L144.533 112.438L172.164 105.713L199.794 112.438L227.425 105.713L255.055 112.438L282.686 105.713L310.316 112.438L337.828 105.713L365.458 112.438L392.97 105.765L393.327 106.081L365.458 112.859L337.828 106.133L310.316 112.859L282.686 106.133L255.055 112.859L227.425 106.133L199.794 112.859Z" fill="#4EBE9D" fill-opacity="0.3"/>
<path d="M310.316 119.426L282.686 112.753L255.055 119.426L227.425 112.753L199.794 119.426L172.164 112.753L144.533 119.426L116.902 112.753L89.2719 119.426L61.6414 112.753L34.0108 119.426L6.38022 112.753L-21.2503 119.426L-49 112.701L-48.6427 112.386L-21.2503 119.058L6.38022 112.333L34.0108 119.058L61.6414 112.333L89.2719 119.058L116.902 112.333L144.533 119.058L172.164 112.333L199.794 119.058L227.425 112.333L255.055 119.058L282.686 112.333L310.316 119.058L337.828 112.333L365.458 119.058L392.97 112.386L393.327 112.701L365.458 119.426L337.828 112.753L310.316 119.426Z" fill="#4EBE9D" fill-opacity="0.3"/>
<path d="M199.794 126.047L172.164 119.321L144.533 126.047L116.902 119.321L89.2719 126.047L61.6414 119.321L34.0108 126.047L6.38022 119.321L-21.2503 126.047L-49 119.269L-48.6427 119.006L-21.2503 125.679L6.38022 118.954L34.0108 125.679L61.6414 118.954L89.2719 125.679L116.902 118.954L144.533 125.679L172.164 118.954L199.794 125.679L227.425 118.954L255.055 125.679L282.686 118.954L310.316 125.679L337.828 118.954L365.458 125.679L392.97 119.006L393.327 119.269L365.458 126.047L337.828 119.321L310.316 126.047L282.686 119.321L255.055 126.047L227.425 119.321L199.794 126.047Z" fill="#4EBE9D" fill-opacity="0.3"/>
<path d="M310.316 132.667L282.686 125.941L255.055 132.667L227.425 125.941L199.794 132.667L172.164 125.941L144.533 132.667L116.902 125.941L89.2719 132.667L61.6414 125.941L34.0108 132.667L6.38022 125.941L-21.2503 132.667L-49 125.889L-48.6427 125.574L-21.2503 132.246L6.38022 125.521L34.0108 132.246L61.6414 125.521L89.2719 132.246L116.902 125.521L144.533 132.246L172.164 125.521L199.794 132.246L227.425 125.521L255.055 132.246L282.686 125.521L310.316 132.246L337.828 125.521L365.458 132.246L392.97 125.574L393.327 125.889L365.458 132.667L337.828 125.941L310.316 132.667Z" fill="#4EBE9D" fill-opacity="0.3"/>
<path d="M310.316 139.287L282.686 132.562L255.055 139.287L227.425 132.562L199.794 139.287L172.164 132.562L144.533 139.287L116.902 132.562L89.2719 139.287L61.6414 132.562L34.0108 139.287L6.38022 132.562L-21.2503 139.287L-49 132.509L-48.6427 132.194L-21.2503 138.867L6.38022 132.142L34.0108 138.867L61.6414 132.142L89.2719 138.867L116.902 132.142L144.533 138.867L172.164 132.142L199.794 138.867L227.425 132.142L255.055 138.867L282.686 132.142L310.316 138.867L337.828 132.142L365.458 138.867L392.97 132.194L393.327 132.509L365.458 139.287L337.828 132.562L310.316 139.287Z" fill="#4EBE9D" fill-opacity="0.3"/>
<path d="M199.794 145.854L172.164 139.182L144.533 145.854L116.902 139.182L89.2719 145.854L61.6414 139.182L34.0108 145.854L6.38022 139.182L-21.2503 145.854L-49 139.129L-48.6427 138.814L-21.2503 145.487L6.38022 138.761L34.0108 145.487L61.6414 138.761L89.2719 145.487L116.902 138.761L144.533 145.487L172.164 138.761L199.794 145.487L227.425 138.761L255.055 145.487L282.686 138.761L310.316 145.487L337.828 138.761L365.458 145.487L392.97 138.814L393.327 139.129L365.458 145.854L337.828 139.182L310.316 145.854L282.686 139.182L255.055 145.854L227.425 139.182L199.794 145.854Z" fill="#4EBE9D" fill-opacity="0.3"/>
<path d="M310.316 152.475L282.686 145.75L255.055 152.475L227.425 145.75L199.794 152.475L172.164 145.75L144.533 152.475L116.902 145.75L89.2719 152.475L61.6414 145.75L34.0108 152.475L6.38022 145.75L-21.2503 152.475L-49 145.697L-48.6427 145.434L-21.2503 152.107L6.38022 145.382L34.0108 152.107L61.6414 145.382L89.2719 152.107L116.902 145.382L144.533 152.107L172.164 145.382L199.794 152.107L227.425 145.382L255.055 152.107L282.686 145.382L310.316 152.107L337.828 145.382L365.458 152.107L392.97 145.434L393.327 145.697L365.458 152.475L337.828 145.75L310.316 152.475Z" fill="#4EBE9D" fill-opacity="0.3"/>
<path d="M199.794 159.095L172.164 152.37L144.533 159.095L116.902 152.37L89.2719 159.095L61.6414 152.37L34.0108 159.095L6.38022 152.37L-21.2503 159.095L-49 152.317L-48.6427 152.002L-21.2503 158.674L6.38022 151.949L34.0108 158.674L61.6414 151.949L89.2719 158.674L116.902 151.949L144.533 158.674L172.164 151.949L199.794 158.674L227.425 151.949L255.055 158.674L282.686 151.949L310.316 158.674L337.828 151.949L365.458 158.674L392.97 152.002L393.327 152.317L365.458 159.095L337.828 152.37L310.316 159.095L282.686 152.37L255.055 159.095L227.425 152.37L199.794 159.095Z" fill="#4EBE9D" fill-opacity="0.3"/>
<path d="M310.316 165.715L282.686 158.99L255.055 165.715L227.425 158.99L199.794 165.715L172.164 158.99L144.533 165.715L116.902 158.99L89.2719 165.715L61.6414 158.99L34.0108 165.715L6.38022 158.99L-21.2503 165.715L-49 158.938L-48.6427 158.622L-21.2503 165.295L6.38022 158.57L34.0108 165.295L61.6414 158.57L89.2719 165.295L116.902 158.57L144.533 165.295L172.164 158.57L199.794 165.295L227.425 158.57L255.055 165.295L282.686 158.57L310.316 165.295L337.828 158.57L365.458 165.295L392.97 158.622L393.327 158.938L365.458 165.715L337.828 158.99L310.316 165.715Z" fill="#4EBE9D" fill-opacity="0.3"/>
</svg>
