<svg width="342" height="106" viewBox="0 0 342 106" fill="none" xmlns="http://www.w3.org/2000/svg">
<g clip-path="url(#clip0_1076_241)">
<path d="M359.316 7.14562L331.686 0.42033L304.055 7.14562L276.425 0.42033L248.794 7.14562L221.164 0.42033L193.533 7.14562L165.902 0.42033L138.272 7.14562L110.641 0.42033L83.0108 7.14562L55.3802 0.42033L27.7497 7.14562L0 0.367789L0.357314 0.0525415L27.7497 6.72529L55.3802 0L83.0108 6.72529L110.641 0L138.272 6.72529L165.902 0L193.533 6.72529L221.164 0L248.794 6.72529L276.425 0L304.055 6.72529L331.686 0L359.316 6.72529L386.828 0L414.458 6.72529L441.97 0.0525415L442.327 0.367789L414.458 7.14562L386.828 0.42033L359.316 7.14562Z" fill="#121138" fill-opacity="0.3"/>
<path d="M359.316 13.766L331.686 7.04069L304.055 13.766L276.425 7.04069L248.794 13.766L221.164 7.04069L193.533 13.766L165.902 7.04069L138.272 13.766L110.641 7.04069L83.0108 13.766L55.3802 7.04069L27.7497 13.766L0 6.98815L0.357314 6.6729L27.7497 13.3456L55.3802 6.62036L83.0108 13.3456L110.641 6.62036L138.272 13.3456L165.902 6.62036L193.533 13.3456L221.164 6.62036L248.794 13.3456L276.425 6.62036L304.055 13.3456L331.686 6.62036L359.316 13.3456L386.828 6.62036L414.458 13.3456L441.97 6.6729L442.327 6.98815L414.458 13.766L386.828 7.04069L359.316 13.766Z" fill="#121138" fill-opacity="0.3"/>
<path d="M248.794 20.3333L221.164 13.608L193.533 20.3333L165.902 13.608L138.272 20.3333L110.641 13.608L83.0108 20.3333L55.3802 13.608L27.7497 20.3333L0 13.608L0.357314 13.2928L27.7497 19.9655L55.3802 13.2402L83.0108 19.9655L110.641 13.2402L138.272 19.9655L165.902 13.2402L193.533 19.9655L221.164 13.2402L248.794 19.9655L276.425 13.2402L304.055 19.9655L331.686 13.2402L359.316 19.9655L386.828 13.2402L414.458 19.9655L441.97 13.2928L442.327 13.608L414.458 20.3333L386.828 13.608L359.316 20.3333L331.686 13.608L304.055 20.3333L276.425 13.608L248.794 20.3333Z" fill="#121138" fill-opacity="0.3"/>
<path d="M359.316 26.9539L331.686 20.2286L304.055 26.9539L276.425 20.2286L248.794 26.9539L221.164 20.2286L193.533 26.9539L165.902 20.2286L138.272 26.9539L110.641 20.2286L83.0108 26.9539L55.3802 20.2286L27.7497 26.9539L0 20.1761L0.357314 19.9134L27.7497 26.5336L55.3802 19.8608L83.0108 26.5336L110.641 19.8608L138.272 26.5336L165.902 19.8608L193.533 26.5336L221.164 19.8608L248.794 26.5336L276.425 19.8608L304.055 26.5336L331.686 19.8608L359.316 26.5336L386.828 19.8608L414.458 26.5336L441.97 19.9134L442.327 20.1761L414.458 26.9539L386.828 20.2286L359.316 26.9539Z" fill="#121138" fill-opacity="0.3"/>
<path d="M248.794 33.5738L221.164 26.8486L193.533 33.5738L165.902 26.8486L138.272 33.5738L110.641 26.8486L83.0108 33.5738L55.3802 26.8486L27.7497 33.5738L0 26.796L0.357314 26.4808L27.7497 33.1535L55.3802 26.4282L83.0108 33.1535L110.641 26.4282L138.272 33.1535L165.902 26.4282L193.533 33.1535L221.164 26.4282L248.794 33.1535L276.425 26.4282L304.055 33.1535L331.686 26.4282L359.316 33.1535L386.828 26.4282L414.458 33.1535L441.97 26.4808L442.327 26.796L414.458 33.5738L386.828 26.8486L359.316 33.5738L331.686 26.8486L304.055 33.5738L276.425 26.8486L248.794 33.5738Z" fill="#121138" fill-opacity="0.3"/>
<path d="M359.316 40.1937L331.686 33.4684L304.055 40.1937L276.425 33.4684L248.794 40.1937L221.164 33.4684L193.533 40.1937L165.902 33.4684L138.272 40.1937L110.641 33.4684L83.0108 40.1937L55.3802 33.4684L27.7497 40.1937L0 33.4159L0.357314 33.1006L27.7497 39.7734L55.3802 33.0481L83.0108 39.7734L110.641 33.0481L138.272 39.7734L165.902 33.0481L193.533 39.7734L221.164 33.0481L248.794 39.7734L276.425 33.0481L304.055 39.7734L331.686 33.0481L359.316 39.7734L386.828 33.0481L414.458 39.7734L441.97 33.1006L442.327 33.4159L414.458 40.1937L386.828 33.4684L359.316 40.1937Z" fill="#121138" fill-opacity="0.3"/>
<path d="M248.794 46.7618L221.164 40.0365L193.533 46.7618L165.902 40.0365L138.272 46.7618L110.641 40.0365L83.0108 46.7618L55.3802 40.0365L27.7497 46.7618L0 40.0365L0.357314 39.7212L27.7497 46.394L55.3802 39.6687L83.0108 46.394L110.641 39.6687L138.272 46.394L165.902 39.6687L193.533 46.394L221.164 39.6687L248.794 46.394L276.425 39.6687L304.055 46.394L331.686 39.6687L359.316 46.394L386.828 39.6687L414.458 46.394L441.97 39.7212L442.327 40.0365L414.458 46.7618L386.828 40.0365L359.316 46.7618L331.686 40.0365L304.055 46.7618L276.425 40.0365L248.794 46.7618Z" fill="#121138" fill-opacity="0.3"/>
<path d="M359.316 53.3816L331.686 46.6564L304.055 53.3816L276.425 46.6564L248.794 53.3816L221.164 46.6564L193.533 53.3816L165.902 46.6564L138.272 53.3816L110.641 46.6564L83.0108 53.3816L55.3802 46.6564L27.7497 53.3816L0 46.6038L0.357314 46.2886L27.7497 52.9613L55.3802 46.2886L83.0108 52.9613L110.641 46.2886L138.272 52.9613L165.902 46.2886L193.533 52.9613L221.164 46.2886L248.794 52.9613L276.425 46.2886L304.055 52.9613L331.686 46.2886L359.316 52.9613L386.828 46.2886L414.458 52.9613L441.97 46.2886L442.327 46.6038L414.458 53.3816L386.828 46.6564L359.316 53.3816Z" fill="#121138" fill-opacity="0.3"/>
<path d="M359.316 60.0021L331.686 53.2768L304.055 60.0021L276.425 53.2768L248.794 60.0021L221.164 53.2768L193.533 60.0021L165.902 53.2768L138.272 60.0021L110.641 53.2768L83.0108 60.0021L55.3802 53.2768L27.7497 60.0021L0 53.2242L0.357314 52.909L27.7497 59.5817L55.3802 52.8564L83.0108 59.5817L110.641 52.8564L138.272 59.5817L165.902 52.8564L193.533 59.5817L221.164 52.8564L248.794 59.5817L276.425 52.8564L304.055 59.5817L331.686 52.8564L359.316 59.5817L386.828 52.8564L414.458 59.5817L441.97 52.909L442.327 53.2242L414.458 60.0021L386.828 53.2768L359.316 60.0021Z" fill="#121138" fill-opacity="0.3"/>
<path d="M248.794 66.5696L221.164 59.8969L193.533 66.5696L165.902 59.8969L138.272 66.5696L110.641 59.8969L83.0108 66.5696L55.3802 59.8969L27.7497 66.5696L0 59.8444L0.357314 59.5291L27.7497 66.2019L55.3802 59.4766L83.0108 66.2019L110.641 59.4766L138.272 66.2019L165.902 59.4766L193.533 66.2019L221.164 59.4766L248.794 66.2019L276.425 59.4766L304.055 66.2019L331.686 59.4766L359.316 66.2019L386.828 59.4766L414.458 66.2019L441.97 59.5291L442.327 59.8444L414.458 66.5696L386.828 59.8969L359.316 66.5696L331.686 59.8969L304.055 66.5696L276.425 59.8969L248.794 66.5696Z" fill="#121138" fill-opacity="0.3"/>
<path d="M359.316 73.1902L331.686 66.465L304.055 73.1902L276.425 66.465L248.794 73.1902L221.164 66.465L193.533 73.1902L165.902 66.465L138.272 73.1902L110.641 66.465L83.0108 73.1902L55.3802 66.465L27.7497 73.1902L0 66.465L0.357314 66.1497L27.7497 72.8225L55.3802 66.0972L83.0108 72.8225L110.641 66.0972L138.272 72.8225L165.902 66.0972L193.533 72.8225L221.164 66.0972L248.794 72.8225L276.425 66.0972L304.055 72.8225L331.686 66.0972L359.316 72.8225L386.828 66.0972L414.458 72.8225L441.97 66.1497L442.327 66.465L414.458 73.1902L386.828 66.465L359.316 73.1902Z" fill="#121138" fill-opacity="0.3"/>
<path d="M248.794 79.8099L221.164 73.0846L193.533 79.8099L165.902 73.0846L138.272 79.8099L110.641 73.0846L83.0108 79.8099L55.3802 73.0846L27.7497 79.8099L0 73.032L0.357314 72.7168L27.7497 79.3895L55.3802 72.7168L83.0108 79.3895L110.641 72.7168L138.272 79.3895L165.902 72.7168L193.533 79.3895L221.164 72.7168L248.794 79.3895L276.425 72.7168L304.055 79.3895L331.686 72.7168L359.316 79.3895L386.828 72.7168L414.458 79.3895L441.97 72.7168L442.327 73.032L414.458 79.8099L386.828 73.0846L359.316 79.8099L331.686 73.0846L304.055 79.8099L276.425 73.0846L248.794 79.8099Z" fill="#121138" fill-opacity="0.3"/>
<path d="M359.316 86.4303L331.686 79.705L304.055 86.4303L276.425 79.705L248.794 86.4303L221.164 79.705L193.533 86.4303L165.902 79.705L138.272 86.4303L110.641 79.705L83.0108 86.4303L55.3802 79.705L27.7497 86.4303L0 79.6525L0.357314 79.3372L27.7497 86.01L55.3802 79.2847L83.0108 86.01L110.641 79.2847L138.272 86.01L165.902 79.2847L193.533 86.01L221.164 79.2847L248.794 86.01L276.425 79.2847L304.055 86.01L331.686 79.2847L359.316 86.01L386.828 79.2847L414.458 86.01L441.97 79.3372L442.327 79.6525L414.458 86.4303L386.828 79.705L359.316 86.4303Z" fill="#121138" fill-opacity="0.3"/>
<path d="M248.794 92.9979L221.164 86.3251L193.533 92.9979L165.902 86.3251L138.272 92.9979L110.641 86.3251L83.0108 92.9979L55.3802 86.3251L27.7497 92.9979L0 86.2726L0.357314 85.9573L27.7497 92.6301L55.3802 85.9048L83.0108 92.6301L110.641 85.9048L138.272 92.6301L165.902 85.9048L193.533 92.6301L221.164 85.9048L248.794 92.6301L276.425 85.9048L304.055 92.6301L331.686 85.9048L359.316 92.6301L386.828 85.9048L414.458 92.6301L441.97 85.9573L442.327 86.2726L414.458 92.9979L386.828 86.3251L359.316 92.9979L331.686 86.3251L304.055 92.9979L276.425 86.3251L248.794 92.9979Z" fill="#121138" fill-opacity="0.3"/>
<path d="M359.316 99.6185L331.686 92.8932L304.055 99.6185L276.425 92.8932L248.794 99.6185L221.164 92.8932L193.533 99.6185L165.902 92.8932L138.272 99.6185L110.641 92.8932L83.0108 99.6185L55.3802 92.8932L27.7497 99.6185L0 92.8406L0.357314 92.5779L27.7497 99.2507L55.3802 92.5254L83.0108 99.2507L110.641 92.5254L138.272 99.2507L165.902 92.5254L193.533 99.2507L221.164 92.5254L248.794 99.2507L276.425 92.5254L304.055 99.2507L331.686 92.5254L359.316 99.2507L386.828 92.5254L414.458 99.2507L441.97 92.5779L442.327 92.8406L414.458 99.6185L386.828 92.8932L359.316 99.6185Z" fill="#121138" fill-opacity="0.3"/>
<path d="M359.316 106.238L331.686 99.5128L304.055 106.238L276.425 99.5128L248.794 106.238L221.164 99.5128L193.533 106.238L165.902 99.5128L138.272 106.238L110.641 99.5128L83.0108 106.238L55.3802 99.5128L27.7497 106.238L0 99.4603L0.357314 99.145L27.7497 105.818L55.3802 99.145L83.0108 105.818L110.641 99.145L138.272 105.818L165.902 99.145L193.533 105.818L221.164 99.145L248.794 105.818L276.425 99.145L304.055 105.818L331.686 99.145L359.316 105.818L386.828 99.145L414.458 105.818L441.97 99.145L442.327 99.4603L414.458 106.238L386.828 99.5128L359.316 106.238Z" fill="#121138" fill-opacity="0.3"/>
<path d="M248.794 112.859L221.164 106.133L193.533 112.859L165.902 106.133L138.272 112.859L110.641 106.133L83.0108 112.859L55.3802 106.133L27.7497 112.859L0 106.081L0.357314 105.765L27.7497 112.438L55.3802 105.713L83.0108 112.438L110.641 105.713L138.272 112.438L165.902 105.713L193.533 112.438L221.164 105.713L248.794 112.438L276.425 105.713L304.055 112.438L331.686 105.713L359.316 112.438L386.828 105.713L414.458 112.438L441.97 105.765L442.327 106.081L414.458 112.859L386.828 106.133L359.316 112.859L331.686 106.133L304.055 112.859L276.425 106.133L248.794 112.859Z" fill="#121138" fill-opacity="0.3"/>
</g>
<defs>
<clipPath id="clip0_1076_241">
<rect width="342" height="106" fill="white"/>
</clipPath>
</defs>
</svg>
